<svg width="249" height="372" viewBox="0 0 249 372" fill="none" xmlns="http://www.w3.org/2000/svg">
<path d="M29.2 205V103.8H20.8V205H4V58.6C4 55.6667 4.53333 52.9333 5.6 50.4C6.66667 47.8667 8.13333 45.6667 10 43.8C12 41.9333 14.2667 40.4667 16.8 39.4C19.3333 38.2 22.0667 37.6 25 37.6C27.8 37.6 30.4667 38.2 33 39.4C35.5333 40.4667 37.7333 41.9333 39.6 43.8C41.6 45.6667 43.1333 47.8667 44.2 50.4C45.2667 52.9333 45.8 55.6667 45.8 58.6V205H29.2ZM29.2 58.6C29.2 57.4 28.7333 56.4 27.8 55.6C27 54.8 26.0667 54.4 25 54.4C23.8 54.4 22.8 54.8 22 55.6C21.2 56.4 20.8 57.4 20.8 58.6V87.2H29.2V58.6ZM53.8047 205V37.6H74.8047C77.6047 37.6 80.2714 38.2 82.8047 39.4C85.338 40.4667 87.538 41.9333 89.4047 43.8C91.4047 45.6667 92.938 47.8667 94.0047 50.4C95.0714 52.9333 95.6047 55.6667 95.6047 58.6V83C95.6047 87.6667 94.2047 91.8667 91.4047 95.6C94.2047 99.2 95.6047 103.333 95.6047 108V184.2C95.6047 187.133 95.0714 189.867 94.0047 192.4C92.938 194.933 91.4047 197.133 89.4047 199C87.538 200.867 85.338 202.333 82.8047 203.4C80.2714 204.467 77.6047 205 74.8047 205H53.8047ZM74.8047 188.4C75.8714 188.4 76.8047 188 77.6047 187.2C78.538 186.267 79.0047 185.267 79.0047 184.2V108C79.0047 106.933 78.538 106 77.6047 105.2C76.8047 104.267 75.8714 103.8 74.8047 103.8H70.6047V188.4H74.8047ZM74.8047 87.2C75.8714 87.2 76.8047 86.8 77.6047 86C78.538 85.0667 79.0047 84.0667 79.0047 83V58.6C79.0047 57.4 78.538 56.4 77.6047 55.6C76.8047 54.8 75.8714 54.4 74.8047 54.4H70.6047V87.2H74.8047ZM124.409 205C118.943 205 114.209 203.2 110.209 199.6C106.343 195.867 104.143 191.2 103.609 185.6V57.2C104.009 51.4667 106.143 46.8667 110.009 43.4C114.009 39.8 118.943 37.8667 124.809 37.6C130.276 37.6 134.943 39.4667 138.809 43.2C142.809 46.9333 145.009 51.6 145.409 57.2V185.6C145.009 190.933 142.943 195.4 139.209 199C135.609 202.6 131.276 204.6 126.209 205H124.409ZM124.609 188.4C125.676 188.4 126.609 188 127.409 187.2C128.343 186.267 128.809 185.267 128.809 184.2V58.6C128.809 57.4 128.343 56.4 127.409 55.6C126.609 54.8 125.676 54.4 124.609 54.4C123.409 54.4 122.409 54.8 121.609 55.6C120.809 56.4 120.409 57.4 120.409 58.6V184.2C120.409 185.267 120.809 186.267 121.609 187.2C122.409 188 123.409 188.4 124.609 188.4ZM174.414 205C171.481 205 168.747 204.467 166.214 203.4C163.681 202.333 161.414 200.867 159.414 199C157.547 197.133 156.081 194.933 155.014 192.4C153.947 189.867 153.414 187.133 153.414 184.2V37.6H170.214V184.2C170.214 185.267 170.614 186.267 171.414 187.2C172.214 188 173.214 188.4 174.414 188.4C175.481 188.4 176.414 188 177.214 187.2C178.147 186.267 178.614 185.267 178.614 184.2V37.6H195.214V184.2C195.214 187.133 194.681 189.867 193.614 192.4C192.547 194.933 191.014 197.133 189.014 199C187.147 200.867 184.947 202.333 182.414 203.4C179.881 204.467 177.214 205 174.414 205ZM215.419 205V54.4H202.819V37.6H244.619V54.4H232.019V205H215.419Z" fill="black"/>
<path d="M43.005 342V228.54C43.005 227.61 42.6433 226.835 41.92 226.215C41.3 225.492 40.5767 225.13 39.75 225.13C38.82 225.13 38.045 225.492 37.425 226.215C36.805 226.835 36.495 227.61 36.495 228.54V342H23.63V228.54C23.63 227.61 23.2683 226.835 22.545 226.215C21.925 225.492 21.15 225.13 20.22 225.13C19.3933 225.13 18.67 225.492 18.05 226.215C17.43 226.835 17.12 227.61 17.12 228.54V342H4.1V228.54C4.1 226.267 4.51333 224.148 5.34 222.185C6.27 220.118 7.45833 218.362 8.905 216.915C10.455 215.468 12.2117 214.332 14.175 213.505C16.1383 212.678 18.205 212.265 20.375 212.265C23.8883 212.265 27.1433 213.35 30.14 215.52C33.0333 213.453 36.2367 212.42 39.75 212.42C42.0233 212.42 44.1417 212.833 46.105 213.66C48.0683 214.487 49.7733 215.623 51.22 217.07C52.6667 218.517 53.8033 220.222 54.63 222.185C55.56 224.148 56.025 226.267 56.025 228.54V342H43.005ZM62.225 342V212.265H94.62V225.285H75.245V250.705H88.11V263.57H75.245V329.135H94.62V342H62.225Z" fill="black"/>
<circle cx="157.5" cy="285.5" r="37" fill="#001BF4" stroke="white" stroke-width="5"/>
<circle cx="157.502" cy="285.5" r="24.9574" fill="white"/>
<circle cx="157.501" cy="285.501" r="18.3511" fill="#96E0F9"/>
<circle cx="157.502" cy="285.501" r="8.07408" fill="black"/>
</svg>
