<svg width="259" height="372" viewBox="0 0 259 372" fill="none" xmlns="http://www.w3.org/2000/svg">
<path d="M28.8 205C23.3333 205 18.6 203.2 14.6 199.6C10.7333 195.867 8.53333 191.2 8 185.6V57.2C8.4 51.4667 10.5333 46.8667 14.4 43.4C18.4 39.8 23.3333 37.8667 29.2 37.6C34.6667 37.6 39.3333 39.4667 43.2 43.2C47.2 46.9333 49.4 51.6 49.8 57.2V79.4H33.2V58.6C33.2 57.4 32.7333 56.4 31.8 55.6C31 54.6667 30 54.2 28.8 54.2C27.7333 54.2 26.8 54.6667 26 55.6C25.2 56.4 24.8 57.4 24.8 58.6V184.2C24.8 185.4 25.2 186.4 26 187.2C26.8 188 27.7333 188.4 28.8 188.4C30 188.4 31 188 31.8 187.2C32.7333 186.4 33.2 185.4 33.2 184.2V104H28.8V87.2H49.8V185.6C49.4 190.933 47.3333 195.4 43.6 199C40 202.6 35.6667 204.6 30.6 205H28.8ZM57.8047 205V37.6H99.6047V54.4H74.6047V87.2H91.2047V103.8H74.6047V188.4H99.6047V205H57.8047ZM119.809 205V54.4H107.209V37.6H149.009V54.4H136.409V205H119.809ZM188.273 205V37.6H205.073V205H188.273ZM238.278 205V58.6C238.278 57.4 237.811 56.4 236.878 55.6C236.078 54.8 235.145 54.4 234.078 54.4C232.878 54.4 231.878 54.8 231.078 55.6C230.278 56.4 229.878 57.4 229.878 58.6V205H213.078V58.6C213.078 55.6667 213.611 52.9333 214.678 50.4C215.745 47.8667 217.211 45.6667 219.078 43.8C221.078 41.9333 223.345 40.4667 225.878 39.4C228.411 38.2 231.145 37.6 234.078 37.6C236.878 37.6 239.545 38.2 242.078 39.4C244.611 40.4667 246.811 41.9333 248.678 43.8C250.678 45.6667 252.211 47.8667 253.278 50.4C254.345 52.9333 254.878 55.6667 254.878 58.6V205H238.278Z" fill="black"/>
<path d="M74.555 342V225.285H64.79V212.265H97.185V225.285H87.42V342H74.555ZM119.213 342C114.976 342 111.308 340.605 108.208 337.815C105.211 334.922 103.506 331.305 103.093 326.965V227.455C103.403 223.012 105.056 219.447 108.053 216.76C111.153 213.97 114.976 212.472 119.523 212.265C123.76 212.265 127.376 213.712 130.373 216.605C133.473 219.498 135.178 223.115 135.488 227.455V326.965C135.178 331.098 133.576 334.56 130.683 337.35C127.893 340.14 124.535 341.69 120.608 342H119.213ZM119.368 329.135C120.195 329.135 120.918 328.825 121.538 328.205C122.261 327.482 122.623 326.707 122.623 325.88V228.54C122.623 227.61 122.261 226.835 121.538 226.215C120.918 225.595 120.195 225.285 119.368 225.285C118.438 225.285 117.663 225.595 117.043 226.215C116.423 226.835 116.113 227.61 116.113 228.54V325.88C116.113 326.707 116.423 327.482 117.043 328.205C117.663 328.825 118.438 329.135 119.368 329.135ZM157.967 342C155.693 342 153.575 341.587 151.612 340.76C149.648 339.933 147.892 338.797 146.342 337.35C144.895 335.903 143.758 334.198 142.932 332.235C142.105 330.272 141.692 328.153 141.692 325.88V212.265H154.712V325.88C154.712 326.707 155.022 327.482 155.642 328.205C156.262 328.825 157.037 329.135 157.967 329.135C158.793 329.135 159.517 328.825 160.137 328.205C160.86 327.482 161.222 326.707 161.222 325.88V212.265H174.087V325.88C174.087 328.153 173.673 330.272 172.847 332.235C172.02 334.198 170.832 335.903 169.282 337.35C167.835 338.797 166.13 339.933 164.167 340.76C162.203 341.587 160.137 342 157.967 342ZM196.41 342C192.174 342 188.505 340.605 185.405 337.815C182.409 334.922 180.704 331.305 180.29 326.965V227.455C180.6 223.012 182.254 219.447 185.25 216.76C188.35 213.97 192.174 212.472 196.72 212.265C200.957 212.265 204.574 213.712 207.57 216.605C210.67 219.498 212.375 223.115 212.685 227.455V244.66H199.82V228.54C199.82 227.61 199.459 226.835 198.735 226.215C198.115 225.492 197.34 225.13 196.41 225.13C195.584 225.13 194.86 225.492 194.24 226.215C193.62 226.835 193.31 227.61 193.31 228.54V325.88C193.31 326.81 193.62 327.585 194.24 328.205C194.86 328.825 195.584 329.135 196.41 329.135C197.34 329.135 198.115 328.825 198.735 328.205C199.459 327.585 199.82 326.81 199.82 325.88V263.725H212.685V326.965C212.375 331.098 210.774 334.56 207.88 337.35C205.09 340.14 201.732 341.69 197.805 342H196.41ZM238.419 342V263.57H231.909V342H218.889V212.265H231.909V250.705H238.419V212.265H251.284V342H238.419Z" fill="black"/>
<circle cx="39.5" cy="285.5" r="37" fill="#001BF4" stroke="white" stroke-width="5"/>
<circle cx="39.5024" cy="285.5" r="24.9574" fill="white"/>
<circle cx="39.5015" cy="285.501" r="18.3511" fill="#96E0F9"/>
<circle cx="39.5018" cy="285.501" r="8.07408" fill="black"/>
</svg>
