<svg width="77" height="74" viewBox="0 0 77 74" fill="none" xmlns="http://www.w3.org/2000/svg">
<path d="M42.4578 0C46.7889 0.0110997 48.9871 0.0332992 50.8851 0.0850979L51.6319 0.110997C52.4943 0.140596 53.3451 0.177595 54.373 0.221994C58.4692 0.40699 61.2641 1.02858 63.7165 1.94245C66.2573 2.88223 68.3978 4.155 70.5383 6.20845C72.4967 8.05742 74.0116 10.2949 74.9772 12.7647C75.9281 15.1215 76.5748 17.8077 76.7673 21.7481C76.8135 22.7322 76.852 23.5499 76.8828 24.3824L76.9059 25.1002C76.9637 26.9205 76.9868 29.0332 76.9945 33.1956L76.9983 35.9557V40.8026C77.0077 43.5013 76.9782 46.2001 76.9098 48.898L76.8867 49.6158C76.8559 50.4483 76.8174 51.266 76.7712 52.2501C76.5787 56.1905 75.9242 58.873 74.9772 61.2335C74.0116 63.7033 72.4967 65.9408 70.5383 67.7898C68.6145 69.6719 66.2863 71.1278 63.7165 72.0558C61.2641 72.9696 58.4692 73.5912 54.373 73.7762L51.6319 73.8872L50.8851 73.9094C48.9871 73.9612 46.7889 73.9871 42.4578 73.9945L39.5859 73.9982H34.5465C31.7371 74.0077 28.9278 73.9794 26.1193 73.9131L25.3724 73.8909C24.4585 73.8577 23.5448 73.8194 22.6313 73.7762C18.5352 73.5912 15.7402 72.9696 13.284 72.0558C10.7155 71.1273 8.38877 69.6714 6.46601 67.7898C4.50625 65.9412 2.99006 63.7036 2.02334 61.2335C1.07244 58.8767 0.425668 56.1905 0.233178 52.2501L0.117684 49.6158L0.0984353 48.898C0.0274681 46.2001 -0.00461705 43.5014 0.00218976 40.8026V33.1956C-0.0084661 30.4969 0.0197688 27.7982 0.0868858 25.1002L0.113834 24.3824C0.144633 23.5499 0.183131 22.7322 0.229328 21.7481C0.421819 17.8077 1.06859 15.1252 2.01949 12.7647C2.98846 10.2939 4.50732 8.05632 6.46986 6.20845C8.39151 4.32723 10.7169 2.8714 13.284 1.94245C15.7402 1.02858 18.5313 0.40699 22.6313 0.221994C23.6554 0.177595 24.5101 0.140596 25.3724 0.110997L26.1193 0.0887976C28.9265 0.0230605 31.7346 -0.00530825 34.5426 0.00369964L42.4578 0ZM38.5002 18.4996C33.3951 18.4996 28.499 20.4486 24.8891 23.9179C21.2792 27.3873 19.2512 32.0927 19.2512 36.9991C19.2512 41.9055 21.2792 46.6109 24.8891 50.0803C28.499 53.5496 33.3951 55.4987 38.5002 55.4987C43.6054 55.4987 48.5015 53.5496 52.1114 50.0803C55.7213 46.6109 57.7493 41.9055 57.7493 36.9991C57.7493 32.0927 55.7213 27.3873 52.1114 23.9179C48.5015 20.4486 43.6054 18.4996 38.5002 18.4996ZM38.5002 25.8994C40.0169 25.8991 41.5188 26.186 42.9202 26.7436C44.3215 27.3012 45.5948 28.1186 46.6675 29.1491C47.7401 30.1796 48.5911 31.4031 49.1717 32.7497C49.7523 34.0963 50.0513 35.5396 50.0516 36.9973C50.0518 38.4549 49.7534 39.8983 49.1732 41.2451C48.593 42.5919 47.7425 43.8156 46.6702 44.8465C45.5979 45.8774 44.3249 46.6952 42.9237 47.2532C41.5226 47.8112 40.0208 48.0986 38.5041 48.0988C35.441 48.0988 32.5034 46.9294 30.3374 44.8478C28.1715 42.7662 26.9547 39.9429 26.9547 36.9991C26.9547 34.0553 28.1715 31.232 30.3374 29.1504C32.5034 27.0688 35.441 25.8994 38.5041 25.8994M58.7156 12.9497C57.4393 12.9497 56.2153 13.4369 55.3128 14.3043C54.4103 15.1716 53.9033 16.348 53.9033 17.5746C53.9033 18.8012 54.4103 19.9775 55.3128 20.8449C56.2153 21.7122 57.4393 22.1995 58.7156 22.1995C59.9919 22.1995 61.2159 21.7122 62.1184 20.8449C63.0208 19.9775 63.5278 18.8012 63.5278 17.5746C63.5278 16.348 63.0208 15.1716 62.1184 14.3043C61.2159 13.4369 59.9919 12.9497 58.7156 12.9497Z" fill="black"/>
</svg>
