<svg width="77" height="74" viewBox="0 0 77 74" fill="none" xmlns="http://www.w3.org/2000/svg">
<path d="M68.4444 0C70.7135 0 72.8897 0.866267 74.4941 2.40823C76.0986 3.9502 77 6.04155 77 8.22222V65.7778C77 67.9585 76.0986 70.0498 74.4941 71.5918C72.8897 73.1337 70.7135 74 68.4444 74H8.55556C6.28648 74 4.11034 73.1337 2.50586 71.5918C0.901386 70.0498 0 67.9585 0 65.7778V8.22222C0 6.04155 0.901386 3.9502 2.50586 2.40823C4.11034 0.866267 6.28648 0 8.55556 0H68.4444ZM66.3056 63.7222V41.9333C66.3056 38.3788 64.8363 34.9699 62.221 32.4565C59.6057 29.9431 56.0586 28.5311 52.36 28.5311C48.7239 28.5311 44.4889 30.6689 42.4356 33.8756V29.3122H30.5006V63.7222H42.4356V43.4544C42.4356 40.2889 45.0878 37.6989 48.3817 37.6989C49.97 37.6989 51.4933 38.3053 52.6165 39.3847C53.7396 40.464 54.3706 41.928 54.3706 43.4544V63.7222H66.3056ZM16.5978 22.8578C18.5038 22.8578 20.3318 22.1301 21.6795 20.8349C23.0273 19.5396 23.7844 17.7829 23.7844 15.9511C23.7844 12.1278 20.5761 9.00333 16.5978 9.00333C14.6804 9.00333 12.8416 9.73533 11.4858 11.0383C10.13 12.3413 9.36833 14.1084 9.36833 15.9511C9.36833 19.7744 12.6194 22.8578 16.5978 22.8578ZM22.5439 63.7222V29.3122H10.6944V63.7222H22.5439Z" fill="black"/>
</svg>
