<svg width="175" height="372" viewBox="0 0 175 372" fill="none" xmlns="http://www.w3.org/2000/svg">
<path d="M29.2 205V108C29.2 106.933 28.7333 106 27.8 105.2C27 104.267 26.0667 103.8 25 103.8H20.8V205H4V37.6H25C27.8 37.6 30.4667 38.2 33 39.4C35.5333 40.4667 37.7333 41.9333 39.6 43.8C41.6 45.6667 43.1333 47.8667 44.2 50.4C45.2667 52.9333 45.8 55.6667 45.8 58.6V83C45.8 87.6667 44.4 91.8667 41.6 95.6C44.4 99.2 45.8 103.333 45.8 108V205H29.2ZM25 87.2C26.0667 87.2 27 86.8 27.8 86C28.7333 85.0667 29.2 84.0667 29.2 83V58.6C29.2 57.4 28.7333 56.4 27.8 55.6C27 54.8 26.0667 54.4 25 54.4H20.8V87.2H25ZM53.8047 205V37.6H70.6047V205H53.8047ZM99.4094 205C93.9427 205 89.2094 203.2 85.2094 199.6C81.3427 195.867 79.1427 191.2 78.6094 185.6V57.2C79.0094 51.4667 81.1427 46.8667 85.0094 43.4C89.0094 39.8 93.9427 37.8667 99.8094 37.6C105.276 37.6 109.943 39.4667 113.809 43.2C117.809 46.9333 120.009 51.6 120.409 57.2V79.4H103.809V58.6C103.809 57.4 103.343 56.4 102.409 55.6C101.609 54.6667 100.609 54.2 99.4094 54.2C98.3427 54.2 97.4094 54.6667 96.6094 55.6C95.8094 56.4 95.4094 57.4 95.4094 58.6V184.2C95.4094 185.4 95.8094 186.4 96.6094 187.2C97.4094 188 98.3427 188.4 99.4094 188.4C100.609 188.4 101.609 188 102.409 187.2C103.343 186.4 103.809 185.4 103.809 184.2V104H120.409V185.6C120.009 190.933 117.943 195.4 114.209 199C110.609 202.6 106.276 204.6 101.209 205H99.4094ZM153.614 205L145.214 120.6V205H128.414V37.6H145.214V103.8L153.414 37.6H170.214L161.014 112.2L170.214 205H153.614Z" fill="black"/>
<path d="M4.1 342V212.265H20.375C22.545 212.265 24.6117 212.73 26.575 213.66C28.5383 214.487 30.2433 215.623 31.69 217.07C33.24 218.517 34.4283 220.222 35.255 222.185C36.0817 224.148 36.495 226.267 36.495 228.54V247.45C36.495 251.067 35.41 254.322 33.24 257.215C35.41 260.005 36.495 263.208 36.495 266.825V325.88C36.495 328.153 36.0817 330.272 35.255 332.235C34.4283 334.198 33.24 335.903 31.69 337.35C30.2433 338.797 28.5383 339.933 26.575 340.76C24.6117 341.587 22.545 342 20.375 342H4.1ZM20.375 329.135C21.2017 329.135 21.925 328.825 22.545 328.205C23.2683 327.482 23.63 326.707 23.63 325.88V266.825C23.63 265.998 23.2683 265.275 22.545 264.655C21.925 263.932 21.2017 263.57 20.375 263.57H17.12V329.135H20.375ZM20.375 250.705C21.2017 250.705 21.925 250.395 22.545 249.775C23.2683 249.052 23.63 248.277 23.63 247.45V228.54C23.63 227.61 23.2683 226.835 22.545 226.215C21.925 225.595 21.2017 225.285 20.375 225.285H17.12V250.705H20.375ZM62.2286 342L55.7186 276.59V342H42.6986V212.265H55.7186V263.57L62.0736 212.265H75.0936L67.9636 270.08L75.0936 342H62.2286ZM120.202 342V228.54C120.202 227.61 119.841 226.835 119.117 226.215C118.497 225.492 117.774 225.13 116.947 225.13C116.017 225.13 115.242 225.492 114.622 226.215C114.002 226.835 113.692 227.61 113.692 228.54V342H100.827V228.54C100.827 227.61 100.466 226.835 99.7423 226.215C99.1223 225.492 98.3473 225.13 97.4173 225.13C96.5906 225.13 95.8673 225.492 95.2473 226.215C94.6273 226.835 94.3173 227.61 94.3173 228.54V342H81.2973V228.54C81.2973 226.267 81.7106 224.148 82.5373 222.185C83.4673 220.118 84.6556 218.362 86.1023 216.915C87.6523 215.468 89.4089 214.332 91.3723 213.505C93.3356 212.678 95.4023 212.265 97.5723 212.265C101.086 212.265 104.341 213.35 107.337 215.52C110.231 213.453 113.434 212.42 116.947 212.42C119.221 212.42 121.339 212.833 123.302 213.66C125.266 214.487 126.971 215.623 128.417 217.07C129.864 218.517 131.001 220.222 131.827 222.185C132.757 224.148 133.222 226.267 133.222 228.54V342H120.202ZM158.952 342V228.54C158.952 227.61 158.591 226.835 157.867 226.215C157.247 225.595 156.524 225.285 155.697 225.285C154.767 225.285 153.992 225.595 153.372 226.215C152.752 226.835 152.442 227.61 152.442 228.54V342H139.422V228.54C139.422 226.267 139.836 224.148 140.662 222.185C141.489 220.222 142.626 218.517 144.072 217.07C145.622 215.623 147.379 214.487 149.342 213.66C151.306 212.73 153.424 212.265 155.697 212.265C157.867 212.265 159.934 212.73 161.897 213.66C163.861 214.487 165.566 215.623 167.012 217.07C168.562 218.517 169.751 220.222 170.577 222.185C171.404 224.148 171.817 226.267 171.817 228.54V342H158.952Z" fill="black"/>
<circle cx="86.5" cy="207.5" r="37" fill="#001BF4" stroke="white" stroke-width="5"/>
<circle cx="86.5024" cy="207.5" r="24.9574" fill="white"/>
<circle cx="86.5015" cy="207.501" r="18.3511" fill="#96E0F9"/>
<circle cx="86.5018" cy="207.501" r="8.07408" fill="black"/>
</svg>
